<svg width="15" height="20" viewBox="0 0 15 20" fill="none" xmlns="http://www.w3.org/2000/svg">
<path d="M7.24314 0C3.24925 0 0 3.24925 0 7.2431C0 12.1996 6.4819 19.476 6.75787 19.7833C7.01709 20.0721 7.46966 20.0715 7.7284 19.7833C8.00438 19.476 14.4863 12.1996 14.4863 7.2431C14.4862 3.24925 11.237 0 7.24314 0ZM7.24314 18.3485C5.06165 15.7572 1.30436 10.6448 1.30436 7.24318C1.30436 3.96846 3.96846 1.30436 7.24314 1.30436C10.5178 1.30436 13.1819 3.96846 13.1819 7.24314C13.1819 10.645 9.42517 15.7564 7.24314 18.3485Z" fill="#28B446"/>
<path d="M7.24317 3.59863C5.23374 3.59863 3.599 5.23341 3.599 7.24284C3.599 9.25226 5.23378 10.887 7.24317 10.887C9.25255 10.887 10.8873 9.25226 10.8873 7.24284C10.8873 5.23341 9.25255 3.59863 7.24317 3.59863ZM7.24317 9.58269C5.95295 9.58269 4.90336 8.53305 4.90336 7.24284C4.90336 5.95262 5.95299 4.90299 7.24317 4.90299C8.53334 4.90299 9.58297 5.95262 9.58297 7.24284C9.58297 8.53305 8.53334 9.58269 7.24317 9.58269Z" fill="#28B446"/>
</svg>
