<svg width="11" height="18" viewBox="0 0 11 18" fill="none" xmlns="http://www.w3.org/2000/svg">
<path d="M0.574219 17.4248C0.674742 17.5248 0.838929 17.5248 0.939453 17.4248L0.947266 17.417L0.955078 17.4102L9.9502 9.21289C9.99484 9.16595 10.0192 9.10203 10.0156 9.02344L10.0146 8.99805L10.0156 8.97363C10.0196 8.89547 9.99382 8.83236 9.94824 8.78613L0.956055 0.589844L0.948242 0.583008L0.94043 0.575195C0.839936 0.475212 0.67573 0.475179 0.575195 0.575195C0.477691 0.672203 0.475882 0.827843 0.570312 0.926758L9.02246 8.63086L9.42871 9L9.02246 9.36914L0.569336 17.0742C0.475532 17.1731 0.477044 17.328 0.574219 17.4248Z" fill="#868889" stroke="black"/>
</svg>
