<svg width="19" height="23" viewBox="0 0 19 23" fill="none" xmlns="http://www.w3.org/2000/svg">
<path d="M10.9252 4.0056C10.6629 4.0056 10.4501 3.79094 10.4501 3.52646V1.91655C10.4501 1.38854 10.0236 0.958277 9.50013 0.958277C8.97667 0.958277 8.55011 1.38854 8.55011 1.91655V3.52646C8.55011 3.79094 8.33731 4.0056 8.07511 4.0056C7.8129 4.0056 7.6001 3.7919 7.6001 3.52646V1.91655C7.6001 0.859574 8.45226 0 9.50013 0C10.548 0 11.4002 0.859574 11.4002 1.91655V3.52646C11.4002 3.7919 11.1874 4.0056 10.9252 4.0056Z" fill="#28B446"/>
<path d="M9.50023 22.9991C7.6667 22.9991 6.17517 21.4946 6.17517 19.6452C6.17517 19.3807 6.38797 19.166 6.65018 19.166C6.91238 19.166 7.12519 19.3807 7.12519 19.6452C7.12519 20.9657 8.19111 22.0408 9.50023 22.0408C10.8094 22.0408 11.8753 20.9657 11.8753 19.6452C11.8753 19.3807 12.0881 19.166 12.3503 19.166C12.6125 19.166 12.8253 19.3807 12.8253 19.6452C12.8253 21.4946 11.3338 22.9991 9.50023 22.9991Z" fill="#28B446"/>
<path d="M17.5753 20.124H1.42502C0.639361 20.124 0 19.4791 0 18.6866C0 18.2659 0.181453 17.8682 0.498758 17.5941C1.99598 16.3177 2.85005 14.4606 2.85005 12.4942V9.58294C2.85005 5.88399 5.8331 2.875 9.50016 2.875C13.1672 2.875 16.1503 5.88399 16.1503 9.58294V12.4942C16.1503 14.4615 17.0043 16.3177 18.494 17.5874C18.8189 17.8682 19.0003 18.2659 19.0003 18.6866C19.0003 19.4791 18.3619 20.124 17.5753 20.124ZM9.50016 3.83328C6.35656 3.83328 3.80006 6.412 3.80006 9.58294V12.4942C3.80006 14.7442 2.82345 16.8668 1.12007 18.3196C1.01082 18.4135 0.950016 18.5467 0.950016 18.6866C0.950016 18.9511 1.16282 19.1657 1.42502 19.1657H17.5753C17.8375 19.1657 18.0503 18.9511 18.0503 18.6866C18.0503 18.5467 17.9895 18.4135 17.8841 18.3224C16.1778 16.8668 15.2003 14.7433 15.2003 12.4942V9.58294C15.2003 6.412 12.6438 3.83328 9.50016 3.83328Z" fill="#28B446"/>
</svg>
