<svg width="33" height="35" viewBox="0 0 33 35" fill="none" xmlns="http://www.w3.org/2000/svg">
<g filter="url(#filter0_d_2464_2016)">
<path d="M25.7526 9.04061C23.4919 9.98256 21.1364 10.5781 18.7227 10.8204L19.8605 8.84954L23.7407 9.08246C24.1717 9.10831 24.5421 8.77991 24.5679 8.34894C24.5938 7.91796 24.2654 7.5476 23.8344 7.5217L20.7346 7.33563L21.4241 6.14143L25.3043 6.37435C25.7353 6.4002 26.1057 6.0718 26.1315 5.64082C26.1574 5.20985 25.829 4.83949 25.398 4.81359L22.2982 4.62752L23.1642 3.12758C24.0277 1.63187 25.9402 1.11943 27.4359 1.98294C28.9316 2.84651 29.4441 4.75902 28.5805 6.25474L27.3584 8.3715L25.7526 9.04061Z" fill="#AE80FF"/>
<path d="M16.2309 10.9455C15.1935 10.9455 14.1643 10.8814 13.1461 10.7542C13.1187 10.5612 13.1037 10.3642 13.1037 10.1637C13.1037 7.86089 14.9705 5.99414 17.2733 5.99414C18.0401 5.99414 18.7581 6.2021 19.3754 6.56333L16.8498 10.9379C16.6438 10.9429 16.4375 10.9455 16.2309 10.9455Z" fill="#AE80FF"/>
<path d="M12.0919 7.7103C11.5142 6.18259 11.4084 5.03299 11.4069 5.01538C11.3703 4.58518 10.9917 4.26715 10.5617 4.30259C10.1315 4.33918 9.81239 4.71762 9.84898 5.14781C9.85852 5.26008 10.0756 7.61967 11.5412 10.2166C11.5421 10.3119 11.546 10.4066 11.5515 10.5008C9.89969 10.183 8.28134 9.69578 6.70901 9.04064L5.768 8.64855C5.89162 8.34548 6.06403 8.06299 6.28007 7.81381C5.21876 7.34323 4.50395 6.28646 4.50395 5.08162C4.50395 3.42913 5.84831 2.08477 7.5008 2.08477C7.76265 2.08477 8.02184 2.1199 8.27555 2.18947C8.62991 0.912763 9.79102 0 11.1491 0C12.4719 0 13.617 0.862312 14.0029 2.09842C14.095 2.0893 14.1859 2.08477 14.2763 2.08477C15.7053 2.08477 16.9032 3.09046 17.2012 4.43107C14.9477 4.45895 13.0032 5.79341 12.0919 7.7103Z" fill="#AE80FF"/>
<path d="M6.10768 10.4841C9.33193 11.8276 12.7379 12.5087 16.2308 12.5087C19.7238 12.5087 23.1298 11.8276 26.354 10.4841C26.9024 10.2556 27.4953 10.6982 27.432 11.289C27.1715 13.7199 26.2288 22.6131 26.0179 24.589C25.8903 25.7839 24.8877 26.6851 23.6858 26.6851H8.77592C7.57395 26.6851 6.57138 25.7839 6.44379 24.5889C6.23287 22.6131 5.29014 13.7198 5.0297 11.289C4.96637 10.6982 5.55923 10.2556 6.10768 10.4841ZM10.2371 21.4732C10.2371 21.905 10.5872 22.255 11.0189 22.255H21.4428C21.8745 22.255 22.2245 21.905 22.2245 21.4732V17.3037C22.2245 16.8719 21.8745 16.5219 21.4428 16.5219H11.0189C10.5872 16.5219 10.2371 16.8719 10.2371 17.3037V21.4732Z" fill="#AE80FF"/>
<path d="M20.6609 18.085H11.8006V20.6909H20.6609V18.085Z" fill="#AE80FF"/>
</g>
<defs>
<filter id="filter0_d_2464_2016" x="0.503967" y="0" width="32.496" height="34.6855" filterUnits="userSpaceOnUse" color-interpolation-filters="sRGB">
<feFlood flood-opacity="0" result="BackgroundImageFix"/>
<feColorMatrix in="SourceAlpha" type="matrix" values="0 0 0 0 0 0 0 0 0 0 0 0 0 0 0 0 0 0 127 0" result="hardAlpha"/>
<feOffset dy="4"/>
<feGaussianBlur stdDeviation="2"/>
<feComposite in2="hardAlpha" operator="out"/>
<feColorMatrix type="matrix" values="0 0 0 0 0 0 0 0 0 0 0 0 0 0 0 0 0 0 0.25 0"/>
<feBlend mode="normal" in2="BackgroundImageFix" result="effect1_dropShadow_2464_2016"/>
<feBlend mode="normal" in="SourceGraphic" in2="effect1_dropShadow_2464_2016" result="shape"/>
</filter>
</defs>
</svg>
