<svg width="20" height="26" viewBox="0 0 20 26" fill="none" xmlns="http://www.w3.org/2000/svg">
<path d="M19.6864 9.43076C19.7217 7.71103 18.7109 6.16399 17.1445 5.49535C16.916 4.0278 15.7324 2.88088 14.2615 2.68656C14.2482 2.54038 14.2204 2.39464 14.1784 2.25066C13.9189 1.36563 13.138 0.699203 12.2359 0.592327C11.6458 0.522107 11.088 0.670055 10.627 0.993773C10.216 0.722168 9.73734 0.575545 9.24673 0.575545C7.98311 0.575545 6.93295 1.50828 6.74997 2.72101C5.30513 3.01248 4.22183 4.29897 4.22183 5.80406C4.22183 5.88488 4.22537 5.96569 4.23156 6.04784C2.55644 6.34903 1.30563 7.80334 1.30563 9.55088C1.30563 10.0561 1.4148 10.5569 1.6243 11.0176C1.15359 11.5206 0.889282 12.1826 0.889282 12.8812C0.889282 13.9253 1.48949 14.8721 2.41191 15.3279C2.37125 19.3304 3.83024 21.7603 6.6766 25.0346L6.83704 25.217L6.86622 25.2501C7.29759 25.7337 7.91858 25.9996 8.61558 25.9996C8.73624 25.9996 8.85514 25.9894 8.97226 25.9744L8.82111 25.6811C7.87128 23.4239 7.28831 21.4198 6.96301 19.6383C5.73739 19.2611 5.20745 18.2824 5.18403 18.2374C5.07 18.0219 5.15353 17.7542 5.36922 17.6407C5.58358 17.5272 5.8501 17.6094 5.96545 17.8236C5.98181 17.8541 6.23904 18.3063 6.80169 18.6145C6.64788 17.4588 6.60324 16.4033 6.64788 15.452C6.64257 15.4039 6.64478 15.3566 6.65583 15.308C6.73274 13.9482 6.98113 12.7973 7.30908 11.8328C5.82004 10.9456 5.63618 9.29385 5.76435 8.49229C5.8028 8.25159 6.02998 8.0851 6.27042 8.12573C6.5113 8.16415 6.67528 8.38983 6.63771 8.63008C6.62666 8.70118 6.42821 10.1661 7.63394 10.9902C7.69405 10.8511 7.7546 10.7128 7.81736 10.5834C8.97978 8.18623 10.6412 6.99338 11.2843 6.59988C11.2829 5.71529 11.8633 4.94684 11.8907 4.91107C12.0387 4.71719 12.3172 4.68098 12.5099 4.82849C12.7035 4.97643 12.7406 5.25334 12.593 5.44677C12.4944 5.5775 12.3008 5.90298 12.2142 6.26115C13.2321 6.14588 14.2257 6.72001 14.2761 6.75004C14.4869 6.87414 14.5563 7.14486 14.4325 7.35463C14.3499 7.49419 14.2022 7.57192 14.0515 7.57192C13.9751 7.57192 13.8982 7.55249 13.8279 7.51097C13.5198 7.33123 12.5819 6.9342 11.9393 7.24158C11.8275 7.29855 11.0752 7.70308 10.2191 8.59563C11.9724 8.468 13.1919 8.98824 13.2533 9.01474C13.4765 9.11322 13.5782 9.37379 13.4805 9.59681C13.4076 9.76198 13.2454 9.86091 13.0752 9.86091C13.0164 9.86091 12.9563 9.84943 12.8988 9.82381C12.8657 9.80968 11.3705 9.19051 9.38861 9.60255C8.99171 10.1603 8.60984 10.829 8.29338 11.6257C8.29249 11.684 8.28056 11.7432 8.25493 11.7997C8.23813 11.8372 8.21559 11.8699 8.19084 11.8999C7.93935 12.5884 7.73648 13.3626 7.61449 14.2371C8.61382 13.6108 9.87435 13.5834 9.94639 13.5826H9.9517C10.193 13.5826 10.3897 13.776 10.3932 14.018C10.3968 14.2618 10.2014 14.4619 9.95788 14.4658C9.93932 14.4663 8.12056 14.5087 7.50179 15.5629C7.45847 16.64 7.53317 17.8426 7.763 19.1807C7.76521 19.1909 7.76653 19.201 7.76786 19.2116C8.07725 20.9954 8.6589 23.0141 9.62286 25.3058L9.83325 25.7112C10.1577 25.5478 10.437 25.3217 10.6363 25.0434C10.9691 24.5788 11.0478 24.0153 10.8569 23.4566C10.0578 21.1138 10.0825 19.326 10.9302 18.1424C12.029 16.6078 14.3176 16.3786 15.5834 16.3786C16.2354 16.3786 16.6831 16.4386 16.6875 16.4395L17.1419 16.5013L17.1874 16.0456C17.1936 15.9855 17.324 14.5626 16.493 13.5958C16.4449 13.5397 16.394 13.4867 16.3419 13.4359C16.5766 13.3834 16.8086 13.3088 17.0367 13.2125C18.6119 12.5487 19.6523 11.0639 19.6864 9.43076Z" fill="#28B446"/>
</svg>
